<?xml version="1.0" standalone="no"?>
<!DOCTYPE svg PUBLIC "-//W3C//DTD SVG 20010904//EN"
 "http://www.w3.org/TR/2001/REC-SVG-20010904/DTD/svg10.dtd">
<svg version="1.0" xmlns="http://www.w3.org/2000/svg"
 width="400.000000pt" height="400.000000pt" viewBox="0 0 400.000000 400.000000"
 preserveAspectRatio="xMidYMid meet">

<g transform="translate(0.000000,400.000000) scale(0.100000,-0.100000)"
fill="#000000" stroke="none">
<path d="M988 3270 c-48 -15 -94 -49 -124 -92 l-29 -41 -3 -836 c-3 -932 -6
-887 66 -957 44 -42 113 -64 204 -64 55 0 68 -3 68 -15 0 -32 42 -96 82 -125
23 -17 71 -39 107 -50 127 -38 1009 -230 1055 -230 86 0 167 52 199 128 9 21
48 181 87 357 39 176 116 522 171 768 54 246 99 469 99 495 0 84 -76 176 -165
201 -41 12 -232 57 -392 93 l-91 21 -4 97 c-3 87 -6 102 -33 146 -19 30 -49
60 -79 79 l-49 30 -571 2 c-314 1 -583 -2 -598 -7z m1183 -83 c51 -33 69 -78
69 -168 l0 -76 -237 53 c-131 30 -258 54 -283 54 -59 0 -117 -28 -158 -75 -38
-43 -46 -61 -68 -156 -9 -41 -21 -69 -28 -69 -35 0 -157 -74 -203 -123 -89
-94 -141 -235 -129 -347 13 -116 75 -242 149 -302 l21 -16 -67 -298 c-37 -164
-68 -299 -70 -300 -1 -2 -41 -4 -87 -6 -76 -2 -89 0 -118 21 -71 50 -67 -2
-70 879 -2 520 1 806 8 831 13 49 45 90 84 107 25 10 145 13 592 14 l561 0 34
-23z m-166 -270 c221 -51 451 -101 650 -142 154 -32 185 -45 210 -88 44 -72
63 33 -209 -1184 -58 -260 -106 -475 -106 -477 0 -3 -14 -21 -31 -41 -59 -66
-56 -67 -535 40 -610 136 -644 144 -676 161 -30 16 -67 81 -68 119 0 12 27
142 61 290 33 149 78 349 99 445 125 567 182 818 192 843 6 15 26 41 46 58 34
30 39 31 101 26 36 -2 156 -25 266 -50z m-628 -649 c-2 -7 -15 -61 -27 -120
-12 -60 -26 -108 -30 -108 -28 0 -100 128 -114 203 l-7 37 92 0 c69 0 90 -3
86 -12z"/>
<path d="M1945 2439 c-209 -72 -341 -286 -306 -496 38 -225 223 -384 448 -384
124 0 212 35 307 121 68 63 122 165 139 263 28 165 -57 353 -203 447 -110 70
-265 90 -385 49z m274 -120 c45 -16 38 -45 -9 -41 -41 3 -55 15 -47 36 8 19
14 19 56 5z m151 -106 c38 -43 70 -110 63 -130 -9 -23 -32 -14 -46 20 -8 17
-31 54 -51 80 -20 26 -34 52 -31 57 12 19 33 10 65 -27z m-231 -139 c23 -19
31 -34 31 -59 0 -47 -8 -64 -41 -80 -40 -21 -63 -19 -98 11 -62 52 -23 150 61
153 9 1 30 -11 47 -25z m-314 -32 c107 -27 110 -29 116 -60 14 -70 75 -122
142 -122 45 0 71 12 114 53 l32 30 111 -28 c103 -26 110 -29 104 -49 -12 -41
-67 -117 -108 -151 -251 -205 -615 -46 -634 277 -3 43 -1 78 4 78 5 0 58 -13
119 -28z"/>
</g>
</svg>
